<svg width="100" height="100" viewBox="0 0 100 100" xmlns="http://www.w3.org/2000/svg">
  <path d="M 50,5 C 25,5 5,25 5,50 C 5,75 25,95 50,95 C 75,95 95,75 95,50 C 95,25 75,5 50,5 Z M 45,15 C 48,12 55,12 58,15 C 62,18 63,25 60,28 C 57,31 50,31 47,28 C 44,25 42,18 45,15 Z M 85,45 C 88,48 88,55 85,58 C 82,62 75,63 72,60 C 69,57 69,50 72,47 C 75,44 82,42 85,45 Z M 55,85 C 58,88 58,95 55,98 C 52,102 45,103 42,100 C 39,97 39,90 42,87 C 45,84 52,82 55,85 Z M 15,55 C 12,52 5,52 2,55 C -2,58 -3,65 0,68 C 3,71 10,71 13,68 C 16,65 18,58 15,55 Z" fill="#FF40A0"/>
</svg>
